<!-- Generated by IcoMoon.io -->
<svg version="1.1" xmlns="http://www.w3.org/2000/svg" width="24" height="24" viewBox="0 0 24 24">
<path d="M12 20.016c3.891 0 6.984-3.141 6.984-7.031s-3.094-6.984-6.984-6.984-6.984 3.094-6.984 6.984 3.094 7.031 6.984 7.031zM19.031 7.406c1.219 1.547 1.969 3.469 1.969 5.578 0 4.969-4.031 9-9 9s-9-4.031-9-9 4.031-9 9-9c2.109 0 4.078 0.797 5.625 2.016l1.406-1.453c0.516 0.422 0.984 0.891 1.406 1.406zM11.016 14.016v-6h1.969v6h-1.969zM15 0.984v2.016h-6v-2.016h6z"></path>
</svg>
