<!-- Generated by IcoMoon.io -->
<svg version="1.1" xmlns="http://www.w3.org/2000/svg" width="24" height="24" viewBox="0 0 24 24">
<title>timer</title>
<path d="M21.984 12c0 5.156-3.938 9.422-8.953 9.938v-2.016c3.938-0.516 6.984-3.891 6.984-7.922s-3.047-7.406-6.984-7.922v-2.016c5.016 0.516 8.953 4.781 8.953 9.938zM5.672 19.734l1.406-1.406c1.125 0.844 2.484 1.406 3.938 1.594v2.016c-2.016-0.188-3.844-0.984-5.344-2.203zM4.078 12.984c0.188 1.453 0.75 2.813 1.594 3.891l-1.406 1.453c-1.219-1.5-2.016-3.328-2.203-5.344h2.016zM5.672 7.078c-0.844 1.125-1.406 2.484-1.594 3.938h-2.016c0.188-2.016 0.984-3.844 2.203-5.344zM11.016 4.078c-1.453 0.188-2.813 0.75-3.938 1.594l-1.406-1.406c1.5-1.219 3.328-2.016 5.344-2.203v2.016zM13.031 9.797l2.953 2.203c-2.007 1.493-4.007 2.993-6 4.5z"></path>
</svg>
