<!-- Generated by IcoMoon.io -->
<svg version="1.1" xmlns="http://www.w3.org/2000/svg" width="24" height="24" viewBox="0 0 24 24">
<path d="M12 20.016c4.406 0 8.016-3.609 8.016-8.016 0-1.781-0.656-3.516-1.734-4.922l-11.203 11.203c1.406 1.078 3.141 1.734 4.922 1.734zM3.984 12c0 1.781 0.656 3.516 1.734 4.922l11.203-11.203c-1.406-1.078-3.141-1.734-4.922-1.734-4.406 0-8.016 3.609-8.016 8.016zM12 2.016c5.484 0 9.984 4.5 9.984 9.984s-4.5 9.984-9.984 9.984-9.984-4.5-9.984-9.984 4.5-9.984 9.984-9.984z"></path>
</svg>
