<!-- Generated by IcoMoon.io -->
<svg version="1.1" xmlns="http://www.w3.org/2000/svg" width="24" height="24" viewBox="0 0 24 24">
<path d="M12 18v-3l3.984 3.984-3.984 4.031v-3c-4.406 0-8.016-3.609-8.016-8.016 0-1.547 0.469-3.047 1.266-4.266l1.453 1.453c-0.469 0.844-0.703 1.781-0.703 2.813 0 3.328 2.672 6 6 6zM12 3.984c4.406 0 8.016 3.609 8.016 8.016 0 1.547-0.469 3.047-1.266 4.266l-1.453-1.453c0.469-0.844 0.703-1.781 0.703-2.813 0-3.328-2.672-6-6-6v3l-3.984-3.984 3.984-4.031v3z"></path>
</svg>
